<?xml version="1.0" encoding="UTF-8" standalone="no"?>
<svg
   xmlns:dc="http://purl.org/dc/elements/1.1/"
   xmlns:cc="http://creativecommons.org/ns#"
   xmlns:rdf="http://www.w3.org/1999/02/22-rdf-syntax-ns#"
   xmlns="http://www.w3.org/2000/svg"
   viewBox="0 0 1280 960"
   height="960"
   width="1280"
   xml:space="preserve"
   version="1.1"
   id="svg2"><metadata
     id="metadata8"><rdf:RDF><cc:Work
         rdf:about=""><dc:format>image/svg+xml</dc:format><dc:type
           rdf:resource="http://purl.org/dc/dcmitype/StillImage" /></cc:Work></rdf:RDF></metadata><defs
     id="defs6"><clipPath
       id="clipPath18"
       clipPathUnits="userSpaceOnUse"><path
         id="path20"
         d="m 0,0 1024,0 0,768 L 0,768 0,0 Z" /></clipPath><clipPath
       id="clipPath54"
       clipPathUnits="userSpaceOnUse"><path
         id="path56"
         d="m 27.44399,459.8047 251.112,0 0,52.19531 -251.112,0 0,-52.19531 z" /></clipPath><clipPath
       id="clipPath68"
       clipPathUnits="userSpaceOnUse"><path
         id="path70"
         d="m 0,0 1024,0 0,768 L 0,768 0,0 Z" /></clipPath><clipPath
       id="clipPath78"
       clipPathUnits="userSpaceOnUse"><path
         id="path80"
         d="m 745.444,216.8047 251.112,0 0,52.19531 -251.112,0 0,-52.19531 z" /></clipPath><clipPath
       id="clipPath92"
       clipPathUnits="userSpaceOnUse"><path
         id="path94"
         d="m 0,0 1024,0 0,768 L 0,768 0,0 Z" /></clipPath><clipPath
       id="clipPath102"
       clipPathUnits="userSpaceOnUse"><path
         id="path104"
         d="m 745.444,459.8047 251.112,0 0,52.19531 -251.112,0 0,-52.19531 z" /></clipPath><clipPath
       id="clipPath116"
       clipPathUnits="userSpaceOnUse"><path
         id="path118"
         d="m 0,0 1024,0 0,768 L 0,768 0,0 Z" /></clipPath><clipPath
       id="clipPath126"
       clipPathUnits="userSpaceOnUse"><path
         id="path128"
         d="m 27.44399,216.8047 251.112,0 0,52.19531 -251.112,0 0,-52.19531 z" /></clipPath><clipPath
       id="clipPath140"
       clipPathUnits="userSpaceOnUse"><path
         id="path142"
         d="m 0,0 1024,0 0,768 L 0,768 0,0 Z" /></clipPath></defs><g
     transform="matrix(1.25,0,0,-1.25,0,960)"
     id="g10"><g
       id="g12" /><g
       id="g14"><g
         clip-path="url(#clipPath18)"
         id="g16"><path
           id="path22"
           style="fill:#ffffff;fill-opacity:1;fill-rule:nonzero;stroke:none"
           d="m 0,0 1024,0 0,768 L 0,768 0,0 Z" /><path
           id="path24"
           style="fill:#00a2ff;fill-opacity:1;fill-rule:nonzero;stroke:none"
           d="m 381.5977,519.1953 260.8046,0 0,-309.9141 -260.8046,0 0,309.9141 z" /><path
           id="path26"
           style="fill:#00a2ff;fill-opacity:1;fill-rule:nonzero;stroke:none"
           d="m 22.59766,519.1953 260.80464,0 0,-309.914 -260.80464,0 0,309.914 z" /><path
           id="path28"
           style="fill:#00a2ff;fill-opacity:1;fill-rule:nonzero;stroke:none"
           d="m 740.5977,519.1953 260.8043,0 0,-309.914 -260.8043,0 0,309.914 z" /><g
           transform="translate(428,582)"
           id="g30"><text
             id="text32"
             style="font-variant:normal;font-weight:bold;font-size:24px;font-family:HelveticaNeue;-inkscape-font-specification:HelveticaNeue-Bold;writing-mode:lr-tb;fill:#000000;fill-opacity:1;fill-rule:nonzero;stroke:none"
             transform="scale(1,-1)"><tspan
               id="tspan34"
               y="0"
               x="0 7.0799999 20.856001 34.632 47.976002 60.431999 74.664001 87.552002 94.223999 109.8 123.576 132.912 145.392 159.168">IceLynx Server</tspan></text>
</g><g
           transform="translate(77,582)"
           id="g36"><text
             id="text38"
             style="font-variant:normal;font-weight:bold;font-size:24px;font-family:HelveticaNeue;-inkscape-font-specification:HelveticaNeue-Bold;writing-mode:lr-tb;fill:#000000;fill-opacity:1;fill-rule:nonzero;stroke:none"
             transform="scale(1,-1)"><tspan
               id="tspan40"
               y="0"
               x="0 16.440001 31.104 45.768002 51.959999 58.152 71.928001 85.704002 94.152 100.344 115.008 129.24001 135.912">Application A</tspan></text>
</g><g
           transform="translate(795,582)"
           id="g42"><text
             id="text44"
             style="font-variant:normal;font-weight:bold;font-size:24px;font-family:HelveticaNeue;-inkscape-font-specification:HelveticaNeue-Bold;writing-mode:lr-tb;fill:#000000;fill-opacity:1;fill-rule:nonzero;stroke:none"
             transform="scale(1,-1)"><tspan
               id="tspan46"
               y="0"
               x="0 16.440001 31.104 45.768002 51.959999 58.152 71.928001 85.704002 94.152 100.344 115.008 129.24001 135.912">Application B</tspan></text>
</g><path
           id="path48"
           style="fill:#61d836;fill-opacity:1;fill-rule:nonzero;stroke:none"
           d="m 30,512 246,0 0,-52.1953 -246,0 L 30,512 Z" /></g></g><g
       id="g50"><g
         clip-path="url(#clipPath54)"
         id="g52"><g
           transform="translate(54,477)"
           id="g58"><text
             id="text60"
             style="font-variant:normal;font-weight:500;font-size:22px;font-family:HelveticaNeue;-inkscape-font-specification:HelveticaNeue-Medium;writing-mode:lr-tb;fill:#ffffff;fill-opacity:1;fill-rule:nonzero;stroke:none"
             transform="scale(1,-1)"><tspan
               id="tspan62"
               y="0"
               x="0 6.1160002 18.348 30.58 42.394001 53.812 66.440002 78.253998 84.370003 99.043999 106.392 119.438 132.88 145.508 157.74001 169.972 177.716 183.832">IceLynx Producer A</tspan></text>
</g></g></g><g
       id="g64"><g
         clip-path="url(#clipPath68)"
         id="g66"><path
           id="path72"
           style="fill:#61d836;fill-opacity:1;fill-rule:nonzero;stroke:none"
           d="m 748,269 246,0 0,-52.1953 -246,0 0,52.1953 z" /></g></g><g
       id="g74"><g
         clip-path="url(#clipPath78)"
         id="g76"><g
           transform="translate(771,234)"
           id="g82"><text
             id="text84"
             style="font-variant:normal;font-weight:500;font-size:22px;font-family:HelveticaNeue;-inkscape-font-specification:HelveticaNeue-Medium;writing-mode:lr-tb;fill:#ffffff;fill-opacity:1;fill-rule:nonzero;stroke:none"
             transform="scale(1,-1)"><tspan
               id="tspan86"
               y="0"
               x="0 6.1160002 18.348 30.58 42.394001 53.812 66.440002 78.253998 84.370003 99.043999 106.392 119.438 132.88 145.508 157.74001 169.972 177.716 183.832">IceLynx Producer B</tspan></text>
</g></g></g><g
       id="g88"><g
         clip-path="url(#clipPath92)"
         id="g90"><path
           id="path96"
           style="fill:#f8ba00;fill-opacity:1;fill-rule:nonzero;stroke:none"
           d="m 748,512 246,0 0,-52.1953 -246,0 0,52.1953 z" /></g></g><g
       id="g98"><g
         clip-path="url(#clipPath102)"
         id="g100"><g
           transform="translate(766,477)"
           id="g106"><text
             id="text108"
             style="font-variant:normal;font-weight:500;font-size:22px;font-family:HelveticaNeue;-inkscape-font-specification:HelveticaNeue-Medium;writing-mode:lr-tb;fill:#ffffff;fill-opacity:1;fill-rule:nonzero;stroke:none"
             transform="scale(1,-1)"><tspan
               id="tspan110"
               y="0"
               x="0 6.1160002 18.348 30.58 42.394001 53.812 66.440002 78.253998 84.370003 100.254 113.3 125.928 137.34599 149.974 169.114 181.34599 189.09 195.20599">IceLynx Consumer B</tspan></text>
</g></g></g><g
       id="g112"><g
         clip-path="url(#clipPath116)"
         id="g114"><path
           id="path120"
           style="fill:#f8ba00;fill-opacity:1;fill-rule:nonzero;stroke:none"
           d="m 30,269 246,0 0,-52.1953 -246,0 L 30,269 Z" /></g></g><g
       id="g122"><g
         clip-path="url(#clipPath126)"
         id="g124"><g
           transform="translate(48,234)"
           id="g130"><text
             id="text132"
             style="font-variant:normal;font-weight:500;font-size:22px;font-family:HelveticaNeue;-inkscape-font-specification:HelveticaNeue-Medium;writing-mode:lr-tb;fill:#ffffff;fill-opacity:1;fill-rule:nonzero;stroke:none"
             transform="scale(1,-1)"><tspan
               id="tspan134"
               y="0"
               x="0 6.1160002 18.348 30.58 42.394001 53.812 66.440002 78.253998 84.370003 100.254 113.3 125.928 137.34599 149.974 169.114 181.34599 189.09 195.20599">IceLynx Consumer A</tspan></text>
</g></g></g><g
       id="g136"><g
         clip-path="url(#clipPath140)"
         id="g138"><path
           id="path144"
           style="fill:#fffc66;fill-opacity:1;fill-rule:nonzero;stroke:none"
           d="m 389,430 246,0 0,-52.1953 -246,0 0,52.1953 z" /><path
           id="path146"
           style="fill:#fffc66;fill-opacity:1;fill-rule:nonzero;stroke:none"
           d="m 389,331 246,0 0,-52.1953 -246,0 0,52.1953 z" /><g
           transform="translate(525,248)"
           id="g148"><text
             id="text150"
             style="font-variant:normal;font-weight:bold;font-size:24px;font-family:HelveticaNeue;-inkscape-font-specification:HelveticaNeue-Bold;writing-mode:lr-tb;fill:#ffffff;fill-opacity:1;fill-rule:nonzero;stroke:none"
             transform="scale(1,-1)"><tspan
               id="tspan152"
               y="0"
               x="0 15.576 24.024 32.928001 46.703999 60.48 82.223999 88.896004">Stream B</tspan></text>
</g><g
           transform="translate(526,468)"
           id="g154"><text
             id="text156"
             style="font-variant:normal;font-weight:bold;font-size:24px;font-family:HelveticaNeue;-inkscape-font-specification:HelveticaNeue-Bold;writing-mode:lr-tb;fill:#ffffff;fill-opacity:1;fill-rule:nonzero;stroke:none"
             transform="scale(1,-1)"><tspan
               id="tspan158"
               y="0"
               x="0 15.576 24.024 32.928001 46.703999 60.48 82.223999 88.896004">Stream A</tspan></text>
</g><path
           id="path160"
           style="fill:#ee220c;fill-opacity:1;fill-rule:nonzero;stroke:none"
           d="m 396,424 23.4062,0 0,-40.1953 -23.4062,0 0,40.1953 z" /><path
           id="path162"
           style="fill:#ee220c;fill-opacity:1;fill-rule:nonzero;stroke:none"
           d="m 426,424 23.4062,0 0,-40.1953 -23.4062,0 0,40.1953 z" /><path
           id="path164"
           style="fill:#ff968d;fill-opacity:1;fill-rule:nonzero;stroke:none"
           d="m 456,424 23.4062,0 0,-40.1953 -23.4062,0 0,40.1953 z" /><path
           id="path166"
           style="fill:#ee220c;fill-opacity:1;fill-rule:nonzero;stroke:none"
           d="m 396,325 23.4062,0 0,-40.1953 -23.4062,0 0,40.1953 z" /><path
           id="path168"
           style="fill:#ee220c;fill-opacity:1;fill-rule:nonzero;stroke:none"
           d="m 426,325 23.4062,0 0,-40.1953 -23.4062,0 0,40.1953 z" /><path
           id="path170"
           style="fill:#ff968d;fill-opacity:1;fill-rule:nonzero;stroke:none"
           d="m 456,325 23.4062,0 0,-40.1953 -23.4062,0 0,40.1953 z" /><g
           transform="matrix(0.7897587,-0.6134176,-0.6134176,-0.7897587,302.8006,526.3323)"
           id="g172"><path
             id="path174"
             style="fill:none;stroke:#000000;stroke-width:2;stroke-linecap:butt;stroke-linejoin:miter;stroke-miterlimit:4;stroke-dasharray:none;stroke-opacity:1"
             d="M 5.5659,44.93464 6.361028,44.3282 39.17866,19.29816 90.48833,85.78469 193.9807,5.868019 194.773,5.256176" /></g><path
           id="path176"
           style="fill:#000000;fill-opacity:1;fill-rule:nonzero;stroke:none"
           d="m 452.3865,397.9068 9.6135,4.7729 -9.5864,4.8271 -0.0271,-9.6 z" /><path
           id="path178"
           style="fill:#000000;fill-opacity:1;fill-rule:nonzero;stroke:none"
           d="m 276.5975,483.4571 c -2.2091,0.0195 -3.9841,1.826 -3.9646,4.0351 0.0194,2.209 1.826,3.9841 4.035,3.9646 2.2091,-0.0194 3.9841,-1.826 3.9646,-4.035 -0.0194,-2.2091 -1.826,-3.9841 -4.035,-3.9647 z" /><g
           transform="translate(295,502)"
           id="g180"><text
             id="text182"
             style="font-variant:normal;font-weight:300;font-size:12px;font-family:HelveticaNeue;-inkscape-font-specification:HelveticaNeue-Light;writing-mode:lr-tb;fill:#000000;fill-opacity:1;fill-rule:nonzero;stroke:none"
             transform="scale(1,-1)"><tspan
               id="tspan184"
               y="0"
               x="0 6.888 10.452 17.124001 24.011999 30.455999 36.683998 42.911999 46.248001 52.476002 58.032001 64.260002 70.704002">produce event</tspan></text>
</g><g
           transform="matrix(-0.7897587,0.6134177,0.6134177,0.7897587,678.0987,146.7472)"
           id="g186"><path
             id="path188"
             style="fill:none;stroke:#000000;stroke-width:2;stroke-linecap:butt;stroke-linejoin:miter;stroke-miterlimit:4;stroke-dasharray:none;stroke-opacity:1"
             d="M 5.561841,114.7053 6.35639,114.0981 43.91721,85.39359 82.95853,136.085 251.2173,5.87592 252.0089,5.263261" /></g><path
           id="path190"
           style="fill:#000000;fill-opacity:1;fill-rule:nonzero;stroke:none"
           d="m 483.3096,310.2889 -9.6086,-4.7829 9.5914,-4.8171 0.0172,9.6 z" /><path
           id="path192"
           style="fill:#000000;fill-opacity:1;fill-rule:nonzero;stroke:none"
           d="m 747.0997,244.7248 c 2.2091,-0.0174 3.9858,-1.8222 3.9685,-4.0313 -0.0174,-2.2091 -1.8222,-3.9858 -4.0313,-3.9685 -2.2091,0.0174 -3.9858,1.8222 -3.9685,4.0313 0.0173,2.2091 1.8222,3.9858 4.0313,3.9685 z" /><g
           transform="translate(658,218)"
           id="g194"><text
             id="text196"
             style="font-variant:normal;font-weight:300;font-size:12px;font-family:HelveticaNeue;-inkscape-font-specification:HelveticaNeue-Light;writing-mode:lr-tb;fill:#000000;fill-opacity:1;fill-rule:nonzero;stroke:none"
             transform="scale(1,-1)"><tspan
               id="tspan198"
               y="0"
               x="0 6.888 10.452 17.124001 24.011999 30.455999 36.683998 42.911999 46.248001 52.476002 58.032001 64.260002 70.704002">produce event</tspan></text>
</g><g
           transform="matrix(0.7897587,-0.6134177,-0.6134177,-0.7897587,616.4494,592.3412)"
           id="g200"><path
             id="path202"
             style="fill:none;stroke:#000000;stroke-width:2;stroke-linecap:butt;stroke-linejoin:miter;stroke-miterlimit:4;stroke-dasharray:none;stroke-opacity:1"
             d="M 5.536652,235.0609 6.327602,234.4491 176.5967,102.7279 125.4656,37.3247 166.5457,5.840383 167.3403,5.231397" /></g><path
           id="path204"
           style="fill:#000000;fill-opacity:1;fill-rule:nonzero;stroke:none"
           d="m 744.3678,480.7667 9.6308,4.7379 -9.5688,4.8619 -0.062,-9.5998 z" /><path
           id="path206"
           style="fill:#000000;fill-opacity:1;fill-rule:nonzero;stroke:none"
           d="m 473.6237,399.3093 c -2.2091,0.004 -3.9965,1.7986 -3.9922,4.0078 0.004,2.2091 1.7986,3.9965 4.0078,3.9922 2.2091,-0.004 3.9965,-1.7987 3.9922,-4.0078 -0.004,-2.2091 -1.7987,-3.9965 -4.0078,-3.9922 z" /><g
           transform="matrix(0.7897587,-0.6134177,-0.6134177,-0.7897587,374.6906,376.531)"
           id="g208"><path
             id="path210"
             style="fill:none;stroke:#000000;stroke-width:2;stroke-linecap:butt;stroke-linejoin:miter;stroke-miterlimit:4;stroke-dasharray:none;stroke-opacity:1"
             d="M 6.833874,167.9434 7.62851,167.3363 43.12745,140.2156 2.424473,88.23837 110.3428,4.890511 111.1349,4.278717" /></g><path
           id="path212"
           style="fill:#000000;fill-opacity:1;fill-rule:nonzero;stroke:none"
           d="m 462.8467,308.9715 c 2.2091,-0.006 3.9951,-1.8019 3.989,-4.011 -0.006,-2.2091 -1.8018,-3.9951 -4.011,-3.989 -2.2091,0.006 -3.995,1.8019 -3.989,4.011 0.006,2.2091 1.8019,3.9951 4.011,3.989 z" /><path
           id="path214"
           style="fill:#000000;fill-opacity:1;fill-rule:nonzero;stroke:none"
           d="m 278.1066,244.4961 -9.638,-4.7231 9.5613,-4.8766 0.0767,9.5997 z" /><g
           transform="translate(656,503)"
           id="g216"><text
             id="text218"
             style="font-variant:normal;font-weight:300;font-size:12px;font-family:HelveticaNeue;-inkscape-font-specification:HelveticaNeue-Light;writing-mode:lr-tb;fill:#000000;fill-opacity:1;fill-rule:nonzero;stroke:none"
             transform="scale(1,-1)"><tspan
               id="tspan220"
               y="0"
               x="0 6.2280002 12.9 19.344 25.115999 31.559999 41.556 47.784 51.119999 57.348 62.903999 69.132004 75.575996">consume event</tspan></text>
</g><g
           transform="translate(293,215)"
           id="g222"><text
             id="text224"
             style="font-variant:normal;font-weight:300;font-size:12px;font-family:HelveticaNeue;-inkscape-font-specification:HelveticaNeue-Light;writing-mode:lr-tb;fill:#000000;fill-opacity:1;fill-rule:nonzero;stroke:none"
             transform="scale(1,-1)"><tspan
               id="tspan226"
               y="0"
               x="0 6.2280002 12.9 19.344 25.115999 31.559999 41.556 47.784 51.119999 57.348 62.903999 69.132004 75.575996">consume event</tspan></text>
</g><g
           transform="translate(43,550)"
           id="g228"><text
             id="text230"
             style="font-variant:normal;font-weight:300;font-size:12px;font-family:HelveticaNeue;-inkscape-font-specification:HelveticaNeue-Light;writing-mode:lr-tb;fill:#000000;fill-opacity:1;fill-rule:nonzero;stroke:none"
             transform="scale(1,-1)"><tspan
               id="tspan232"
               y="0"
               x="0 7.5599999 14.448 21.336 23.556 25.775999 32.004002 38.231998 41.784 44.004002 50.675999 57.119999 60.456001 68.459999 71.795998 78.024002 84.251999 87.804001 93.575996 96.912003 103.584 110.028 113.364 119.592 125.148 131.37601 137.82001 141.37199 147.144 150.48 154.032 160.476 166.70399 170.256 173.592 180.036 186.26401 193.15199 200.03999 206.26801 212.71201 218.94 225.828 229.164 231.384 237.828 241.164 248.724 255.612 262.5 264.72 266.94 273.168 279.396 282.948 285.168 291.84 298.284 301.62">Application B acts on events that happened in Application A</tspan></text>
</g><g
           transform="translate(36,169)"
           id="g234"><text
             id="text236"
             style="font-variant:normal;font-weight:300;font-size:12px;font-family:HelveticaNeue;-inkscape-font-specification:HelveticaNeue-Light;writing-mode:lr-tb;fill:#000000;fill-opacity:1;fill-rule:nonzero;stroke:none"
             transform="scale(1,-1)"><tspan
               id="tspan238"
               y="0"
               x="0 7.5599999 14.448 21.336 23.556 25.775999 32.004002 38.231998 41.784 44.004002 50.675999 57.119999 60.456001 68.015999 71.351997 77.580002 83.807999 87.360001 93.132004 96.468002 103.14 109.584 112.92 119.148 124.704 130.93201 137.37601 140.92799 146.7 150.036 153.588 160.032 166.25999 169.812 173.14799 179.592 185.82001 192.70799 199.59599 205.82401 212.26801 218.496 225.384 228.72 230.94 237.384 240.72 248.28 255.168 262.056 264.276 266.496 272.724 278.952 282.504 284.724 291.396 297.84 301.17599">Application A acts on events that happened in Application B</tspan></text>
</g><g
           transform="translate(579.34,455.73)"
           id="g240"><text
             id="text242"
             style="font-variant:normal;font-weight:300;font-size:12px;font-family:HelveticaNeue;-inkscape-font-specification:HelveticaNeue-Light;writing-mode:lr-tb;fill:#ffffff;fill-opacity:1;fill-rule:nonzero;stroke:none"
             transform="scale(1,-1)"><tspan
               id="tspan244"
               y="0"
               x="0 6.6719999 15.564 22.007999 28.236 35.124001 38.459999 45.348 50.903999">owned by </tspan></text>
</g><g
           transform="translate(529.756,440.73)"
           id="g246"><text
             id="text248"
             style="font-variant:normal;font-weight:300;font-size:12px;font-family:HelveticaNeue;-inkscape-font-specification:HelveticaNeue-Light;writing-mode:lr-tb;fill:#ffffff;fill-opacity:1;fill-rule:nonzero;stroke:none"
             transform="scale(1,-1)"><tspan
               id="tspan250"
               y="0"
               x="0 2.664 8.8920002 15.12 21.120001 26.676001 33.119999 38.891998 42.228001 49.787998 53.352001 60.023998 66.912003 73.356003 79.584 85.811996 89.592003 92.928001">IceLynx Producer A</tspan></text>
</g><g
           transform="translate(579.562,236.73)"
           id="g252"><text
             id="text254"
             style="font-variant:normal;font-weight:300;font-size:12px;font-family:HelveticaNeue;-inkscape-font-specification:HelveticaNeue-Light;writing-mode:lr-tb;fill:#ffffff;fill-opacity:1;fill-rule:nonzero;stroke:none"
             transform="scale(1,-1)"><tspan
               id="tspan256"
               y="0"
               x="0 6.6719999 15.564 22.007999 28.236 35.124001 38.459999 45.348 50.903999">owned by </tspan></text>
</g><g
           transform="translate(529.534,221.73)"
           id="g258"><text
             id="text260"
             style="font-variant:normal;font-weight:300;font-size:12px;font-family:HelveticaNeue;-inkscape-font-specification:HelveticaNeue-Light;writing-mode:lr-tb;fill:#ffffff;fill-opacity:1;fill-rule:nonzero;stroke:none"
             transform="scale(1,-1)"><tspan
               id="tspan262"
               y="0"
               x="0 2.664 8.8920002 15.12 21.120001 26.676001 33.119999 38.891998 42.228001 49.787998 53.352001 60.023998 66.912003 73.356003 79.584 85.811996 89.592003 92.928001">IceLynx Producer B</tspan></text>
</g><path
           id="path264"
           style="fill:#5e5e5e;fill-opacity:1;fill-rule:nonzero;stroke:none"
           d="m 437.7031,426.53 18.1519,36.3038 -36.3038,0 18.1519,-36.3038 z" /><path
           id="path266"
           style="fill:#5e5e5e;fill-opacity:1;fill-rule:nonzero;stroke:none"
           d="m 437.7031,282.8338 18.1519,-36.3038 -36.3038,0 18.1519,36.3038 z" /><g
           transform="translate(391,489)"
           id="g268"><text
             id="text270"
             style="font-variant:normal;font-weight:300;font-size:12px;font-family:HelveticaNeue;-inkscape-font-specification:HelveticaNeue-Light;writing-mode:lr-tb;fill:#ffffff;fill-opacity:1;fill-rule:nonzero;stroke:none"
             transform="scale(1,-1)"><tspan
               id="tspan272"
               y="0"
               x="0 8.448 15.12 21.563999 27.336 33.779999 43.776001 50.004002 53.784 57.119999 63.792 66.683998 69.792 75.564003 81.792 85.344002 88.68 95.351997 98.459999">Consumer offset of </tspan></text>
</g><g
           transform="translate(387,474)"
           id="g274"><text
             id="text276"
             style="font-variant:normal;font-weight:300;font-size:12px;font-family:HelveticaNeue;-inkscape-font-specification:HelveticaNeue-Light;writing-mode:lr-tb;fill:#ffffff;fill-opacity:1;fill-rule:nonzero;stroke:none"
             transform="scale(1,-1)"><tspan
               id="tspan278"
               y="0"
               x="0 2.664 8.8920002 15.12 21.120001 26.676001 33.119999 38.891998 42.228001 50.675999 57.348 63.792 69.564003 76.008003 86.003998 92.232002 96.012001 99.348">IceLynx Consumer B</tspan></text>
</g><g
           transform="translate(397,237)"
           id="g280"><text
             id="text282"
             style="font-variant:normal;font-weight:300;font-size:12px;font-family:HelveticaNeue;-inkscape-font-specification:HelveticaNeue-Light;writing-mode:lr-tb;fill:#ffffff;fill-opacity:1;fill-rule:nonzero;stroke:none"
             transform="scale(1,-1)"><tspan
               id="tspan284"
               y="0"
               x="0 8.448 15.12 21.563999 27.336 33.779999 43.776001 50.004002 53.784 57.119999 63.792 66.683998 69.792 75.564003 81.792 85.344002 88.68 95.351997 98.459999">Consumer offset of </tspan></text>
</g><g
           transform="translate(393,222)"
           id="g286"><text
             id="text288"
             style="font-variant:normal;font-weight:300;font-size:12px;font-family:HelveticaNeue;-inkscape-font-specification:HelveticaNeue-Light;writing-mode:lr-tb;fill:#ffffff;fill-opacity:1;fill-rule:nonzero;stroke:none"
             transform="scale(1,-1)"><tspan
               id="tspan290"
               y="0"
               x="0 2.664 8.8920002 15.12 21.120001 26.676001 33.119999 38.891998 42.228001 50.675999 57.348 63.792 69.564003 76.008003 86.003998 92.232002 96.012001 99.348">IceLynx Consumer A</tspan></text>
</g><path
           id="path292"
           style="fill:#56c1ff;fill-opacity:1;fill-rule:nonzero;stroke:none"
           d="m 809.0802,440.7859 c -2.1715,0 -3.9448,-1.7732 -3.9448,-3.9447 l 0,-105.2814 c 0,-2.1715 1.7736,-3.9447 3.9448,-3.9447 l 36.3014,0 c 5.253,-1.9828 5.9946,-7.1149 5.9946,-7.1149 0.3154,-2.6353 -2.2909,-6.5156 -3.3369,-7.9492 -2.3058,-2.628 -3.6945,-6.0062 -3.6945,-9.6891 0,-8.3805 7.1832,-15.1713 16.0413,-15.1713 8.8576,0 16.0413,6.7908 16.0412,15.1713 0,3.4299 -1.2136,6.5875 -3.2416,9.129 l -0.0119,0.0119 c -0.2123,0.2623 -4.1245,5.3003 -3.7422,8.4974 0,0 0.7536,5.1325 6.0066,7.1149 l 38.2678,0 c 2.1715,0 3.9448,1.7733 3.9448,3.9447 l 0,38.4943 c 1.8996,5.5142 7.2102,6.2926 7.2102,6.2926 2.6353,0.3158 6.5275,-2.2909 7.9611,-3.337 2.628,-2.3053 6.0066,-3.6945 9.6891,-3.6945 8.381,0 15.1713,7.1833 15.1713,16.0413 0,8.858 -6.7903,16.0294 -15.1713,16.0294 -3.4353,0 -6.5971,-1.2193 -9.1409,-3.2536 l 0,0.0239 c -0.2296,-0.1873 -5.3016,-4.1378 -8.5093,-3.7541 0,0 -5.3106,0.7664 -7.2102,6.2806 l 0,4.4096 0,31.7489 c 0,2.1715 -1.7737,3.9447 -3.9448,3.9447 l -40.8302,0 c -2.9472,-2.3332 -3.4442,-5.6728 -3.4442,-5.6728 -0.3836,-3.2073 3.5668,-8.2797 3.7541,-8.5093 l -0.0119,0 c 2.0342,-2.5437 3.2535,-5.6932 3.2535,-9.129 0,-8.3809 -7.1836,-15.1832 -16.0412,-15.1832 -8.8581,0 -16.0413,6.8023 -16.0413,15.1832 0,3.6825 1.3887,7.0492 3.6945,9.6772 1.0461,1.4336 3.6523,5.3262 3.3369,7.9611 0,0 -0.4851,3.3396 -3.4323,5.6728 l -38.8637,0 z" /><path
           id="path294"
           style="fill:#56c1ff;fill-opacity:1;fill-rule:nonzero;stroke:none"
           d="m 91.67122,440.7859 c -2.17151,0 -3.94477,-1.7732 -3.94477,-3.9448 l 0,-105.2813 c 0,-2.1715 1.77363,-3.9447 3.94477,-3.9447 l 36.30148,0 c 5.2529,-1.9828 5.9946,-7.1149 5.9946,-7.1149 0.3154,-2.6353 -2.2909,-6.5156 -3.337,-7.9492 -2.3057,-2.628 -3.6945,-6.0062 -3.6945,-9.6891 0,-8.3805 7.1833,-15.1713 16.0413,-15.1713 8.8577,0 16.0413,6.7908 16.0413,15.1713 0,3.4299 -1.2136,6.5875 -3.2416,9.129 l -0.012,0.0119 c -0.2123,0.2623 -4.1245,5.3003 -3.7421,8.4974 0,0 0.7535,5.1325 6.0065,7.1149 l 38.2679,0 c 2.1715,0 3.9448,1.7732 3.9448,3.9447 l 0,38.4943 c 1.8995,5.5142 7.2102,6.2926 7.2102,6.2926 2.6352,0.3158 6.5275,-2.2909 7.961,-3.337 2.628,-2.3053 6.0067,-3.6945 9.6892,-3.6945 8.3809,0 15.1712,7.1833 15.1713,16.0413 0,8.858 -6.7904,16.0294 -15.1713,16.0294 -3.4354,0 -6.5972,-1.2193 -9.1409,-3.2536 l 0,0.0239 c -0.2296,-0.1873 -5.3016,-4.1378 -8.5093,-3.7541 0,0 -5.3106,0.7664 -7.2102,6.2806 l 0,4.4096 0,31.7488 c 0,2.1716 -1.7737,3.9448 -3.9448,3.9448 l -40.8302,0 c -2.9472,-2.3332 -3.4442,-5.6728 -3.4442,-5.6728 -0.3837,-3.2073 3.5668,-8.2797 3.7541,-8.5093 l -0.012,0 c 2.0343,-2.5437 3.2536,-5.6932 3.2536,-9.129 0,-8.3809 -7.1837,-15.1832 -16.0413,-15.1832 -8.858,0 -16.0413,6.8023 -16.0413,15.1832 0,3.6825 1.3888,7.0492 3.6945,9.6772 1.0461,1.4336 3.6524,5.3262 3.337,7.9611 0,0 -0.4851,3.3396 -3.4323,5.6728 l -38.86378,0 z" /><g
           transform="matrix(1,0,0,-1,5.667969,535.2266)"
           id="g296"><path
             id="path298"
             style="fill:none;stroke:#d6d5d5;stroke-width:4;stroke-linecap:butt;stroke-linejoin:miter;stroke-miterlimit:4;stroke-dasharray:4, 4;stroke-dashoffset:0;stroke-opacity:1"
             d="M 39.43418,0 973.2299,0 c 11.3057,0 17.0462,0 23.1438,1.93245 6.6733,2.428692 11.9293,7.685094 14.3583,14.35787 1.932,6.09766 1.932,11.83817 1.932,23.31919 l 0,92.93289 c 0,11.3057 0,17.0462 -1.932,23.1438 -2.429,6.6728 -7.685,11.9292 -14.3583,14.3579 -6.0976,1.9325 -11.8381,1.9325 -23.3191,1.9325 l -933.62042,0 c -11.30569,0 -17.0462,0 -23.14386,-1.9325 C 9.617544,167.6154 4.361142,162.359 1.93245,155.6862 0,149.5886 0,143.8481 0,132.3671 L 0,39.43418 C 0,28.12849 0,22.38798 1.93245,16.29032 4.361142,9.617544 9.617544,4.361142 16.29032,1.93245 22.38798,0 28.12849,0 39.60951,0 l -0.17533,0 z" /></g><g
           transform="matrix(1,0,0,-1,5.667969,343.7871)"
           id="g300"><path
             id="path302"
             style="fill:none;stroke:#d6d5d5;stroke-width:4;stroke-linecap:butt;stroke-linejoin:miter;stroke-miterlimit:4;stroke-dasharray:4, 4;stroke-dashoffset:0;stroke-opacity:1"
             d="M 39.43418,0 973.2299,0 c 11.3057,0 17.0462,0 23.1438,1.93245 6.6733,2.428692 11.9293,7.685094 14.3583,14.35787 1.932,6.09766 1.932,11.83817 1.932,23.31919 l 0,71.49339 c 0,11.3057 0,17.0462 -1.932,23.1439 -2.429,6.6728 -7.685,11.9292 -14.3583,14.3579 -6.0976,1.9324 -11.8381,1.9324 -23.3191,1.9324 l -933.62042,0 c -11.30569,0 -17.0462,0 -23.14386,-1.9324 C 9.617544,146.176 4.361142,140.9196 1.93245,134.2468 0,128.1491 0,122.4086 0,110.9276 L 0,39.43418 C 0,28.12849 0,22.38798 1.93245,16.29032 4.361142,9.617544 9.617544,4.361142 16.29032,1.93245 22.38798,0 28.12849,0 39.60951,0 l -0.17533,0 z" /></g></g></g></g></svg>
