<?xml version="1.0" encoding="UTF-8" standalone="no"?>
<svg
   xmlns:dc="http://purl.org/dc/elements/1.1/"
   xmlns:cc="http://creativecommons.org/ns#"
   xmlns:rdf="http://www.w3.org/1999/02/22-rdf-syntax-ns#"
   xmlns="http://www.w3.org/2000/svg"
   viewBox="0 0 1280 960"
   height="960"
   width="1280"
   xml:space="preserve"
   version="1.1"
   id="svg2"><metadata
     id="metadata8"><rdf:RDF><cc:Work
         rdf:about=""><dc:format>image/svg+xml</dc:format><dc:type
           rdf:resource="http://purl.org/dc/dcmitype/StillImage" /></cc:Work></rdf:RDF></metadata><defs
     id="defs6"><clipPath
       id="clipPath18"
       clipPathUnits="userSpaceOnUse"><path
         id="path20"
         d="m 0,0 1024,0 0,768 L 0,768 0,0 Z" /></clipPath><clipPath
       id="clipPath54"
       clipPathUnits="userSpaceOnUse"><path
         id="path56"
         d="m 27.44399,459.8047 251.112,0 0,52.19531 -251.112,0 0,-52.19531 z" /></clipPath><clipPath
       id="clipPath68"
       clipPathUnits="userSpaceOnUse"><path
         id="path70"
         d="m 0,0 1024,0 0,768 L 0,768 0,0 Z" /></clipPath><clipPath
       id="clipPath78"
       clipPathUnits="userSpaceOnUse"><path
         id="path80"
         d="m 745.444,216.8047 251.112,0 0,52.19531 -251.112,0 0,-52.19531 z" /></clipPath><clipPath
       id="clipPath92"
       clipPathUnits="userSpaceOnUse"><path
         id="path94"
         d="m 0,0 1024,0 0,768 L 0,768 0,0 Z" /></clipPath><clipPath
       id="clipPath102"
       clipPathUnits="userSpaceOnUse"><path
         id="path104"
         d="m 745.444,459.8047 251.112,0 0,52.19531 -251.112,0 0,-52.19531 z" /></clipPath><clipPath
       id="clipPath116"
       clipPathUnits="userSpaceOnUse"><path
         id="path118"
         d="m 0,0 1024,0 0,768 L 0,768 0,0 Z" /></clipPath><clipPath
       id="clipPath122"
       clipPathUnits="userSpaceOnUse"><path
         id="path124"
         d="m 30,216 249,0 0,53 -249,0 0,-53 z" /></clipPath><clipPath
       id="clipPath126"
       clipPathUnits="userSpaceOnUse"><path
         id="path128"
         d="m 30,216 249,0 0,53 -249,0 0,-53 z" /></clipPath><clipPath
       id="clipPath130"
       clipPathUnits="userSpaceOnUse"><path
         id="path132"
         d="m 30,216.8047 248.556,0 0,52.1953 L 30,269 30,216.8047 Z" /></clipPath><clipPath
       id="clipPath230"
       clipPathUnits="userSpaceOnUse"><path
         id="path232"
         d="m 0,0 1024,0 0,768 L 0,768 0,0 Z" /></clipPath><clipPath
       id="clipPath236"
       clipPathUnits="userSpaceOnUse"><path
         id="path238"
         d="m 486,383 24,0 0,41 -24,0 0,-41 z" /></clipPath><clipPath
       id="clipPath240"
       clipPathUnits="userSpaceOnUse"><path
         id="path242"
         d="m 486,383 24,0 0,41 -24,0 0,-41 z" /></clipPath></defs><g
     transform="matrix(1.25,0,0,-1.25,0,960)"
     id="g10"><g
       id="g12" /><g
       id="g14"><g
         clip-path="url(#clipPath18)"
         id="g16"><path
           id="path22"
           style="fill:#ffffff;fill-opacity:1;fill-rule:nonzero;stroke:none"
           d="m 0,0 1024,0 0,768 L 0,768 0,0 Z" /><path
           id="path24"
           style="fill:#00a2ff;fill-opacity:1;fill-rule:nonzero;stroke:none"
           d="m 381.5977,519.1953 260.8046,0 0,-309.9141 -260.8046,0 0,309.9141 z" /><path
           id="path26"
           style="fill:#00a2ff;fill-opacity:1;fill-rule:nonzero;stroke:none"
           d="m 22.59766,519.1953 260.80464,0 0,-309.9141 -260.80464,0 0,309.9141 z" /><path
           id="path28"
           style="fill:#00a2ff;fill-opacity:1;fill-rule:nonzero;stroke:none"
           d="m 740.5977,519.1953 260.8043,0 0,-309.9141 -260.8043,0 0,309.9141 z" /><g
           transform="translate(428,582)"
           id="g30"><text
             id="text32"
             style="font-variant:normal;font-weight:bold;font-size:24px;font-family:HelveticaNeue;-inkscape-font-specification:HelveticaNeue-Bold;writing-mode:lr-tb;fill:#000000;fill-opacity:1;fill-rule:nonzero;stroke:none"
             transform="scale(1,-1)"><tspan
               id="tspan34"
               y="0"
               x="0 7.0799999 20.856001 34.632 47.976002 60.431999 74.664001 87.552002 94.223999 109.8 123.576 132.912 145.392 159.168">IceLynx Server</tspan></text>
</g><g
           transform="translate(77,582)"
           id="g36"><text
             id="text38"
             style="font-variant:normal;font-weight:bold;font-size:24px;font-family:HelveticaNeue;-inkscape-font-specification:HelveticaNeue-Bold;writing-mode:lr-tb;fill:#000000;fill-opacity:1;fill-rule:nonzero;stroke:none"
             transform="scale(1,-1)"><tspan
               id="tspan40"
               y="0"
               x="0 16.440001 31.104 45.768002 51.959999 58.152 71.928001 85.704002 94.152 100.344 115.008 129.24001 135.912">Application A</tspan></text>
</g><g
           transform="translate(795,582)"
           id="g42"><text
             id="text44"
             style="font-variant:normal;font-weight:bold;font-size:24px;font-family:HelveticaNeue;-inkscape-font-specification:HelveticaNeue-Bold;writing-mode:lr-tb;fill:#000000;fill-opacity:1;fill-rule:nonzero;stroke:none"
             transform="scale(1,-1)"><tspan
               id="tspan46"
               y="0"
               x="0 16.440001 31.104 45.768002 51.959999 58.152 71.928001 85.704002 94.152 100.344 115.008 129.24001 135.912">Application B</tspan></text>
</g><path
           id="path48"
           style="fill:#61d836;fill-opacity:1;fill-rule:nonzero;stroke:none"
           d="m 30,512 246,0 0,-52.1953 -246,0 L 30,512 Z" /></g></g><g
       id="g50"><g
         clip-path="url(#clipPath54)"
         id="g52"><g
           transform="translate(54,477)"
           id="g58"><text
             id="text60"
             style="font-variant:normal;font-weight:500;font-size:22px;font-family:HelveticaNeue;-inkscape-font-specification:HelveticaNeue-Medium;writing-mode:lr-tb;fill:#ffffff;fill-opacity:1;fill-rule:nonzero;stroke:none"
             transform="scale(1,-1)"><tspan
               id="tspan62"
               y="0"
               x="0 6.1160002 18.348 30.58 42.394001 53.812 66.440002 78.253998 84.370003 99.043999 106.392 119.438 132.88 145.508 157.74001 169.972 177.716 183.832">IceLynx Producer A</tspan></text>
</g></g></g><g
       id="g64"><g
         clip-path="url(#clipPath68)"
         id="g66"><path
           id="path72"
           style="fill:#61d836;fill-opacity:1;fill-rule:nonzero;stroke:none"
           d="m 748,269 246,0 0,-52.1953 -246,0 0,52.1953 z" /></g></g><g
       id="g74"><g
         clip-path="url(#clipPath78)"
         id="g76"><g
           transform="translate(771,234)"
           id="g82"><text
             id="text84"
             style="font-variant:normal;font-weight:500;font-size:22px;font-family:HelveticaNeue;-inkscape-font-specification:HelveticaNeue-Medium;writing-mode:lr-tb;fill:#ffffff;fill-opacity:1;fill-rule:nonzero;stroke:none"
             transform="scale(1,-1)"><tspan
               id="tspan86"
               y="0"
               x="0 6.1160002 18.348 30.58 42.394001 53.812 66.440002 78.253998 84.370003 99.043999 106.392 119.438 132.88 145.508 157.74001 169.972 177.716 183.832">IceLynx Producer B</tspan></text>
</g></g></g><g
       id="g88"><g
         clip-path="url(#clipPath92)"
         id="g90"><path
           id="path96"
           style="fill:#f8ba00;fill-opacity:1;fill-rule:nonzero;stroke:none"
           d="m 748,512 246,0 0,-52.1953 -246,0 0,52.1953 z" /></g></g><g
       id="g98"><g
         clip-path="url(#clipPath102)"
         id="g100"><g
           transform="translate(766,477)"
           id="g106"><text
             id="text108"
             style="font-variant:normal;font-weight:500;font-size:22px;font-family:HelveticaNeue;-inkscape-font-specification:HelveticaNeue-Medium;writing-mode:lr-tb;fill:#ffffff;fill-opacity:1;fill-rule:nonzero;stroke:none"
             transform="scale(1,-1)"><tspan
               id="tspan110"
               y="0"
               x="0 6.1160002 18.348 30.58 42.394001 53.812 66.440002 78.253998 84.370003 100.254 113.3 125.928 137.34599 149.974 169.114 181.34599 189.09 195.20599">IceLynx Consumer B</tspan></text>
</g></g></g><g
       id="g112"><g
         clip-path="url(#clipPath116)"
         id="g114"><g
           id="g120" /><g
           id="g134"><g
             style="opacity:0.49730003"
             id="g136"
             clip-path="url(#clipPath122)"><g
               id="g138" /><g
               id="g140"><g
                 id="g142"
                 clip-path="url(#clipPath126)"><path
                   id="path144"
                   style="fill:#f8ba00;fill-opacity:1;fill-rule:nonzero;stroke:none"
                   d="m 30,269 246,0 0,-52.1953 -246,0 L 30,269 Z" /></g></g><g
               id="g146"><g
                 id="g148"
                 clip-path="url(#clipPath130)"><g
                   id="g150"
                   transform="translate(48,234)"><text
                     id="text152"
                     style="font-variant:normal;font-weight:500;font-size:22px;font-family:HelveticaNeue;-inkscape-font-specification:HelveticaNeue-Medium;writing-mode:lr-tb;fill:#ffffff;fill-opacity:1;fill-rule:nonzero;stroke:none"
                     transform="scale(1,-1)"><tspan
                       id="tspan154"
                       y="0"
                       x="0 6.1160002 18.348 30.58 42.394001 53.812 66.440002 78.253998 84.370003 100.254 113.3 125.928 137.34599 149.974 169.114 181.34599 189.09 195.20599">IceLynx Consumer A</tspan></text>
</g></g></g></g></g><path
           id="path156"
           style="fill:#fffc66;fill-opacity:1;fill-rule:nonzero;stroke:none"
           d="m 389,430 246,0 0,-52.1953 -246,0 0,52.1953 z" /><g
           transform="translate(526,468)"
           id="g158"><text
             id="text160"
             style="font-variant:normal;font-weight:bold;font-size:24px;font-family:HelveticaNeue;-inkscape-font-specification:HelveticaNeue-Bold;writing-mode:lr-tb;fill:#ffffff;fill-opacity:1;fill-rule:nonzero;stroke:none"
             transform="scale(1,-1)"><tspan
               id="tspan162"
               y="0"
               x="0 15.576 24.024 32.928001 46.703999 60.48 82.223999 88.896004">Stream A</tspan></text>
</g><path
           id="path164"
           style="fill:#ee220c;fill-opacity:1;fill-rule:nonzero;stroke:none"
           d="m 396,424 23.4062,0 0,-40.1953 -23.4062,0 0,40.1953 z" /><path
           id="path166"
           style="fill:#ee220c;fill-opacity:1;fill-rule:nonzero;stroke:none"
           d="m 426,424 23.4062,0 0,-40.1953 -23.4062,0 0,40.1953 z" /><path
           id="path168"
           style="fill:#ff968d;fill-opacity:1;fill-rule:nonzero;stroke:none"
           d="m 456,424 23.4062,0 0,-40.1953 -23.4062,0 0,40.1953 z" /><g
           transform="matrix(0.7897587,-0.6134177,-0.6134177,-0.7897587,302.8006,526.3323)"
           id="g170"><path
             id="path172"
             style="fill:none;stroke:#000000;stroke-width:2;stroke-linecap:butt;stroke-linejoin:miter;stroke-miterlimit:4;stroke-dasharray:none;stroke-opacity:1"
             d="M 5.565899,44.93464 6.361028,44.3282 39.17866,19.29816 90.48833,85.78469 193.9807,5.868019 194.773,5.256176" /></g><path
           id="path174"
           style="fill:#000000;fill-opacity:1;fill-rule:nonzero;stroke:none"
           d="m 452.3865,397.9068 9.6135,4.7729 -9.5864,4.8271 -0.0271,-9.6 z" /><path
           id="path176"
           style="fill:#000000;fill-opacity:1;fill-rule:nonzero;stroke:none"
           d="m 276.5975,483.4571 c -2.2091,0.0195 -3.9841,1.826 -3.9646,4.0351 0.0194,2.2091 1.826,3.9841 4.035,3.9646 2.2091,-0.0194 3.9841,-1.826 3.9646,-4.035 -0.0194,-2.2091 -1.826,-3.9841 -4.035,-3.9647 z" /><g
           transform="translate(295,502)"
           id="g178"><text
             id="text180"
             style="font-variant:normal;font-weight:300;font-size:12px;font-family:HelveticaNeue;-inkscape-font-specification:HelveticaNeue-Light;writing-mode:lr-tb;fill:#000000;fill-opacity:1;fill-rule:nonzero;stroke:none"
             transform="scale(1,-1)"><tspan
               id="tspan182"
               y="0"
               x="0 6.888 10.452 17.124001 24.011999 30.455999 36.683998 42.911999 46.248001 52.476002 58.032001 64.260002 70.704002">produce event</tspan></text>
</g><g
           transform="translate(658,218)"
           id="g184"><text
             id="text186"
             style="font-variant:normal;font-weight:300;font-size:12px;font-family:HelveticaNeue;-inkscape-font-specification:HelveticaNeue-Light;writing-mode:lr-tb;fill:#000000;fill-opacity:1;fill-rule:nonzero;stroke:none"
             transform="scale(1,-1)"><tspan
               id="tspan188"
               y="0"
               x="0 6.888 10.452 17.124001 24.011999 30.455999 36.683998 42.911999 46.248001 52.476002 58.032001 64.260002 70.704002">produce event</tspan></text>
</g><g
           transform="translate(656,503)"
           id="g190"><text
             id="text192"
             style="font-variant:normal;font-weight:300;font-size:12px;font-family:HelveticaNeue;-inkscape-font-specification:HelveticaNeue-Light;writing-mode:lr-tb;fill:#000000;fill-opacity:1;fill-rule:nonzero;stroke:none"
             transform="scale(1,-1)"><tspan
               id="tspan194"
               y="0"
               x="0 6.2280002 12.9 19.344 25.115999 31.559999 41.556 47.784 51.119999 57.348 62.903999 69.132004 75.575996">consume event</tspan></text>
</g><g
           transform="translate(579.34,455.73)"
           id="g196"><text
             id="text198"
             style="font-variant:normal;font-weight:300;font-size:12px;font-family:HelveticaNeue;-inkscape-font-specification:HelveticaNeue-Light;writing-mode:lr-tb;fill:#ffffff;fill-opacity:1;fill-rule:nonzero;stroke:none"
             transform="scale(1,-1)"><tspan
               id="tspan200"
               y="0"
               x="0 6.6719999 15.564 22.007999 28.236 35.124001 38.459999 45.348 50.903999">owned by </tspan></text>
</g><g
           transform="translate(529.756,440.73)"
           id="g202"><text
             id="text204"
             style="font-variant:normal;font-weight:300;font-size:12px;font-family:HelveticaNeue;-inkscape-font-specification:HelveticaNeue-Light;writing-mode:lr-tb;fill:#ffffff;fill-opacity:1;fill-rule:nonzero;stroke:none"
             transform="scale(1,-1)"><tspan
               id="tspan206"
               y="0"
               x="0 2.664 8.8920002 15.12 21.120001 26.676001 33.119999 38.891998 42.228001 49.787998 53.352001 60.023998 66.912003 73.356003 79.584 85.811996 89.592003 92.928001">IceLynx Producer A</tspan></text>
</g><path
           id="path208"
           style="fill:#5e5e5e;fill-opacity:1;fill-rule:nonzero;stroke:none"
           d="m 437.7031,426.53 18.1519,36.3038 -36.3038,0 18.1519,-36.3038 z" /><g
           transform="translate(391,489)"
           id="g210"><text
             id="text212"
             style="font-variant:normal;font-weight:300;font-size:12px;font-family:HelveticaNeue;-inkscape-font-specification:HelveticaNeue-Light;writing-mode:lr-tb;fill:#ffffff;fill-opacity:1;fill-rule:nonzero;stroke:none"
             transform="scale(1,-1)"><tspan
               id="tspan214"
               y="0"
               x="0 8.448 15.12 21.563999 27.336 33.779999 43.776001 50.004002 53.784 57.119999 63.792 66.683998 69.792 75.564003 81.792 85.344002 88.68 95.351997 98.459999">Consumer offset of </tspan></text>
</g><g
           transform="translate(387,474)"
           id="g216"><text
             id="text218"
             style="font-variant:normal;font-weight:300;font-size:12px;font-family:HelveticaNeue;-inkscape-font-specification:HelveticaNeue-Light;writing-mode:lr-tb;fill:#ffffff;fill-opacity:1;fill-rule:nonzero;stroke:none"
             transform="scale(1,-1)"><tspan
               id="tspan220"
               y="0"
               x="0 2.664 8.8920002 15.12 21.120001 26.676001 33.119999 38.891998 42.228001 50.675999 57.348 63.792 69.564003 76.008003 86.003998 92.232002 96.012001 99.348">IceLynx Consumer B</tspan></text>
</g><path
           id="path222"
           style="fill:#56c1ff;fill-opacity:1;fill-rule:nonzero;stroke:none"
           d="m 809.0801,440.7859 c -2.1715,0 -3.9447,-1.7732 -3.9447,-3.9448 l 0,-105.2813 c 0,-2.1715 1.7736,-3.9447 3.9447,-3.9447 l 36.3015,0 c 5.2529,-1.9828 5.9946,-7.1149 5.9946,-7.1149 0.3154,-2.6353 -2.2909,-6.5156 -3.3369,-7.9492 -2.3058,-2.628 -3.6945,-6.0062 -3.6945,-9.6891 0,-8.3805 7.1832,-15.1713 16.0412,-15.1713 8.8577,0 16.0413,6.7908 16.0413,15.1713 0,3.4299 -1.2136,6.5875 -3.2416,9.129 l -0.0119,0.0119 c -0.2123,0.2623 -4.1246,5.3003 -3.7422,8.4974 0,0 0.7536,5.1325 6.0065,7.1149 l 38.2679,0 c 2.1715,0 3.9448,1.7732 3.9448,3.9447 l 0,38.4943 c 1.8996,5.5142 7.2102,6.2926 7.2102,6.2926 2.6353,0.3158 6.5275,-2.2909 7.9611,-3.337 2.628,-2.3053 6.0066,-3.6945 9.6891,-3.6945 8.3809,0 15.1713,7.1833 15.1713,16.0413 0,8.858 -6.7904,16.0294 -15.1713,16.0294 -3.4354,0 -6.5972,-1.2193 -9.1409,-3.2536 l 0,0.0239 c -0.2296,-0.1873 -5.3016,-4.1378 -8.5093,-3.7541 0,0 -5.3106,0.7664 -7.2102,6.2806 l 0,4.4096 0,31.7488 c 0,2.1716 -1.7737,3.9448 -3.9448,3.9448 l -40.8302,0 c -2.9472,-2.3332 -3.4442,-5.6728 -3.4442,-5.6728 -0.3837,-3.2073 3.5668,-8.2797 3.7541,-8.5093 l -0.0119,0 c 2.0342,-2.5437 3.2535,-5.6932 3.2535,-9.129 0,-8.3809 -7.1836,-15.1832 -16.0413,-15.1832 -8.858,0 -16.0412,6.8023 -16.0412,15.1832 0,3.6825 1.3887,7.0492 3.6945,9.6772 1.046,1.4336 3.6523,5.3262 3.3369,7.9611 0,0 -0.4851,3.3396 -3.4323,5.6728 l -38.8638,0 z" /><path
           id="path224"
           style="fill:#56c1ff;fill-opacity:1;fill-rule:nonzero;stroke:none"
           d="m 91.67122,440.7859 c -2.17151,0 -3.94477,-1.7732 -3.94477,-3.9448 l 0,-105.2813 c 0,-2.1715 1.77363,-3.9447 3.94477,-3.9447 l 36.30148,0 c 5.2529,-1.9828 5.9946,-7.1149 5.9946,-7.1149 0.3154,-2.6353 -2.2909,-6.5156 -3.337,-7.9492 -2.3057,-2.628 -3.6945,-6.0062 -3.6945,-9.6891 0,-8.3805 7.1833,-15.1713 16.0413,-15.1713 8.8577,0 16.0413,6.7908 16.0413,15.1713 0,3.4299 -1.2136,6.5875 -3.2416,9.129 l -0.012,0.0119 c -0.2123,0.2623 -4.1245,5.3003 -3.7421,8.4974 0,0 0.7535,5.1325 6.0065,7.1149 l 38.2679,0 c 2.1715,0 3.9448,1.7732 3.9448,3.9447 l 0,38.4943 c 1.8995,5.5142 7.2102,6.2926 7.2102,6.2926 2.6352,0.3158 6.5275,-2.2909 7.961,-3.337 2.628,-2.3053 6.0067,-3.6945 9.6892,-3.6945 8.3809,0 15.1712,7.1833 15.1713,16.0413 0,8.858 -6.7904,16.0294 -15.1713,16.0294 -3.4354,0 -6.5972,-1.2193 -9.1409,-3.2536 l 0,0.0239 c -0.2296,-0.1873 -5.3016,-4.1378 -8.5093,-3.7541 0,0 -5.3106,0.7664 -7.2102,6.2806 l 0,4.4096 0,31.7488 c 0,2.1716 -1.7737,3.9448 -3.9448,3.9448 l -40.8302,0 c -2.9472,-2.3332 -3.4442,-5.6728 -3.4442,-5.6728 -0.3837,-3.2073 3.5668,-8.2797 3.7541,-8.5093 l -0.012,0 c 2.0343,-2.5437 3.2536,-5.6932 3.2536,-9.129 0,-8.3809 -7.1837,-15.1832 -16.0413,-15.1832 -8.858,0 -16.0413,6.8023 -16.0413,15.1832 0,3.6825 1.3888,7.0492 3.6945,9.6772 1.0461,1.4336 3.6524,5.3262 3.337,7.9611 0,0 -0.4851,3.3396 -3.4323,5.6728 l -38.86378,0 z" /></g></g><g
       id="g226"><g
         clip-path="url(#clipPath230)"
         id="g228"><g
           id="g234" /><g
           id="g244"><g
             style="opacity:0.75"
             id="g246"
             clip-path="url(#clipPath236)"><g
               id="g248" /><g
               id="g250"><g
                 id="g252"
                 clip-path="url(#clipPath240)"><path
                   id="path254"
                   style="fill:#d6d5d5;fill-opacity:1;fill-rule:nonzero;stroke:none"
                   d="m 486,424 23.4062,0 0,-40.1953 -23.4062,0 0,40.1953 z" /></g></g></g></g><g
           transform="matrix(0.7897587,-0.6134177,-0.6134177,-0.7897587,616.4494,592.3412)"
           id="g256"><path
             id="path258"
             style="fill:none;stroke:#000000;stroke-width:2;stroke-linecap:butt;stroke-linejoin:miter;stroke-miterlimit:4;stroke-dasharray:none;stroke-opacity:1"
             d="M 5.536652,235.061 6.327602,234.4491 176.5967,102.7279 125.4656,37.3247 166.5457,5.840383 167.3403,5.231397" /></g><path
           id="path260"
           style="fill:#000000;fill-opacity:1;fill-rule:nonzero;stroke:none"
           d="m 744.3678,480.7667 9.6308,4.7379 -9.5687,4.8619 -0.0621,-9.5998 z" /><path
           id="path262"
           style="fill:#000000;fill-opacity:1;fill-rule:nonzero;stroke:none"
           d="m 473.6237,399.3093 c -2.2091,0.004 -3.9965,1.7986 -3.9922,4.0078 0.004,2.2091 1.7986,3.9965 4.0078,3.9922 2.2091,-0.004 3.9965,-1.7987 3.9922,-4.0078 -0.004,-2.2091 -1.7986,-3.9965 -4.0078,-3.9922 z" /><g
           transform="matrix(-0.7897587,0.6134177,0.6134177,0.7897587,729.3517,212.7342)"
           id="g264"><path
             id="path266"
             style="fill:none;stroke:#000000;stroke-width:2;stroke-linecap:butt;stroke-linejoin:miter;stroke-miterlimit:4;stroke-dasharray:none;stroke-opacity:1"
             d="M 5.560124,31.14968 6.354428,30.54216 46.28649,0 140.5354,121.7696 281.9404,12.41437 l 0.7919,-0.61241" /></g><path
           id="path268"
           style="fill:#000000;fill-opacity:1;fill-rule:nonzero;stroke:none"
           d="m 514.3111,400.2858 -9.6101,-4.7798 9.5899,-4.8202 0.0202,9.6 z" /><path
           id="path270"
           style="fill:#000000;fill-opacity:1;fill-rule:nonzero;stroke:none"
           d="m 747.098,244.7232 c 2.2091,-0.0165 3.9866,-1.8206 3.9701,-4.0297 -0.0164,-2.2091 -1.8205,-3.9865 -4.0296,-3.9701 -2.2091,0.0165 -3.9866,1.8206 -3.9701,4.0297 0.0164,2.2091 1.8206,3.9865 4.0296,3.9701 z" /><path
           id="path272"
           style="fill:#ee220c;fill-opacity:1;fill-rule:nonzero;stroke:none"
           d="m 732.6255,372.2944 c -0.6832,-0.0216 -1.3646,-0.5441 -2.4981,-1.5637 -10.9667,-9.8643 -21.3519,-20.309 -31.0973,-31.384 -0.5957,-0.6769 -1.2434,-1.3128 -1.9892,-2.1003 -0.6603,0.9371 -1.2006,1.6739 -1.7025,2.4334 -4.0168,6.0787 -7.9866,12.1899 -12.0651,18.2271 -1.6284,2.4104 -3.5186,4.6466 -5.2553,6.9856 -0.8279,1.1147 -1.873,1.1431 -3.0718,0.842 -1.2065,-0.3032 -1.9082,-1.1268 -1.9245,-2.2761 -0.0258,-1.7913 -1.0199,-2.5982 -2.5444,-3.0903 -1.0514,0.7822 -2.0797,1.548 -3.2569,2.4241 -1.2666,-1.3605 -2.3733,-2.6146 -3.5529,-3.8027 -1.046,-1.0535 -1.0893,-2.1206 -0.6384,-3.5252 4.0151,-12.5125 9.1656,-24.5249 15.4607,-36.0565 0.3231,-0.5922 0.6107,-1.2054 0.9068,-1.7857 -8.678,-10.188 -17.2695,-20.2778 -25.8234,-30.3201 0.7052,-1.6746 1.2573,-3.096 1.906,-4.4781 0.4613,-0.983 0.5114,-1.8905 -0.0278,-2.8498 -0.3742,-0.6658 -0.703,-1.3581 -0.9715,-2.0725 -0.1495,-0.3979 -0.3169,-0.9459 -0.1665,-1.2861 1.2189,-2.7585 2.9735,-5.1034 5.2183,-6.9208 1.1094,0.4678 1.9303,0.8999 2.8035,1.1566 1.0069,0.2961 1.8575,-0.3255 1.5451,-1.2398 -0.6821,-1.9973 0.7347,-2.9835 1.721,-4.1728 0.8,-0.9649 2.1051,-0.9488 3.007,-0.0556 0.3233,0.3201 0.5529,0.7265 0.8327,1.0918 7.0416,9.1977 14.0835,18.3986 21.1324,27.5906 0.5019,0.6543 1.0603,1.2586 1.7765,2.1003 0.6834,-1.0398 1.2324,-1.8437 1.758,-2.6647 4.182,-6.5335 8.715,-12.8102 13.7027,-18.7546 1.4304,-1.7047 2.3871,-1.8686 4.0896,-0.4996 1.2997,1.0452 2.4414,2.2866 3.7009,3.4789 1.4369,-0.8805 2.9117,-1.7852 4.3764,-2.6832 0.8636,0.7156 1.5,1.2554 2.1558,1.7765 0.9673,0.7686 1.7244,1.53 1.8875,2.9515 0.1643,1.4336 0.9454,2.7571 2.5999,3.1921 1.2645,0.3325 2.1113,1.2319 2.7757,2.2853 1.0621,1.6841 1.8806,3.4859 2.2484,5.2831 -7.2841,9.2334 -14.4491,18.3154 -21.6784,27.4796 0.7885,1.0371 1.2885,1.7137 1.8042,2.3778 8.7755,11.28 18.2418,21.95 28.3031,32.0966 1.2316,1.2417 2.4177,2.4799 3.2938,4.071 1.6732,3.0392 1.7368,2.9335 -0.259,5.6254 -0.737,0.994 -1.5534,1.2475 -2.7202,1.2676 -2.2301,0.0382 -3.2518,1.4287 -2.8868,3.5344 0.0809,0.4661 -0.006,1.084 -0.2683,1.4527 -0.6173,0.8675 -1.3087,1.7182 -2.1095,2.4148 -1.1313,0.9842 -1.815,1.465 -2.4982,1.4434 z" /><g
           transform="translate(439,342)"
           id="g274"><text
             id="text276"
             style="font-variant:normal;font-weight:300;font-size:12px;font-family:HelveticaNeue;-inkscape-font-specification:HelveticaNeue-Light;writing-mode:lr-tb;fill:#ffffff;fill-opacity:1;fill-rule:nonzero;stroke:none"
             transform="scale(1,-1)"><tspan
               id="tspan278"
               y="0"
               x="0 2.664 8.8920002 15.12 21.120001 26.676001 33.119999 38.891998 42.228001 49.787998 56.015999 59.796001 65.351997 71.580002 75.360001 78.695999 82.248001 88.475998 94.475998 100.704 106.476 109.812 116.04 122.268 125.832 132.06 135.396 142.06799 145.17599">IceLynx Server takes care of </tspan></text>
</g><g
           transform="translate(446,327)"
           id="g280"><text
             id="text282"
             style="font-variant:normal;font-weight:300;font-size:12px;font-family:HelveticaNeue;-inkscape-font-specification:HelveticaNeue-Light;writing-mode:lr-tb;fill:#ffffff;fill-opacity:1;fill-rule:nonzero;stroke:none"
             transform="scale(1,-1)"><tspan
               id="tspan284"
               y="0"
               x="0 3.552 9.9960003 16.224001 19.559999 25.332001 27.552 33.995998 40.667999 42.888 49.116001 53.556 62.448002 66.227997 68.447998 72 78.227997 82.008003 85.344002 92.232002 96.012001 98.232002 104.676 110.904 113.124 120.012 122.232 128.46001 131.79601">the single-writer principle. </tspan></text>
</g><g
           transform="translate(455,297)"
           id="g286"><text
             id="text288"
             style="font-variant:normal;font-weight:300;font-size:12px;font-family:HelveticaNeue;-inkscape-font-specification:HelveticaNeue-Light;writing-mode:lr-tb;fill:#ffffff;fill-opacity:1;fill-rule:nonzero;stroke:none"
             transform="scale(1,-1)"><tspan
               id="tspan290"
               y="0"
               x="0 7.5599999 11.112 14.676 20.903999 27.132 37.127998 40.464001 48.023998 51.360001 53.580002 59.352001 62.688 69.360001 78.251999 84.695999 90.924004 97.811996 101.148 108.036 113.592">Stream A is owned by </tspan></text>
</g><g
           transform="translate(462,282)"
           id="g292"><text
             id="text294"
             style="font-variant:normal;font-weight:300;font-size:12px;font-family:HelveticaNeue;-inkscape-font-specification:HelveticaNeue-Light;writing-mode:lr-tb;fill:#ffffff;fill-opacity:1;fill-rule:nonzero;stroke:none"
             transform="scale(1,-1)"><tspan
               id="tspan296"
               y="0"
               x="0 2.664 8.8920002 15.12 21.120001 26.676001 33.119999 38.891998 42.228001 49.787998 53.352001 60.023998 66.912003 73.356003 79.584 85.811996 89.592003 92.928001 100.488">IceLynx Producer A </tspan></text>
</g><g
           transform="translate(454,267)"
           id="g298"><text
             id="text300"
             style="font-variant:normal;font-weight:300;font-size:12px;font-family:HelveticaNeue;-inkscape-font-specification:HelveticaNeue-Light;writing-mode:lr-tb;fill:#ffffff;fill-opacity:1;fill-rule:nonzero;stroke:none"
             transform="scale(1,-1)"><tspan
               id="tspan302"
               y="0"
               x="0 5.7719998 12.444 15.78 18.444 24.672001 30.9 36.900002 42.456001 48.900002 54.672001 58.007999 65.568001 69.132004 75.804001 82.692001 89.136002 95.363998 101.592 105.372 108.708 116.712">so IceLynx Producer B </tspan></text>
</g><g
           transform="translate(456,252)"
           id="g304"><text
             id="text306"
             style="font-variant:normal;font-weight:300;font-size:12px;font-family:HelveticaNeue;-inkscape-font-specification:HelveticaNeue-Light;writing-mode:lr-tb;fill:#ffffff;fill-opacity:1;fill-rule:nonzero;stroke:none"
             transform="scale(1,-1)"><tspan
               id="tspan308"
               y="0"
               x="0 2.22 7.9920001 11.328 17.771999 24.444 27.996 31.332001 37.560001 39.779999 42 48.672001 57.563999 63.792 70.68 74.015999 77.568001 84.239998 87.575996 96.468002 100.248 102.468 106.02 112.248">is not allowed to write </tspan></text>
</g><g
           transform="translate(461,237)"
           id="g310"><text
             id="text312"
             style="font-variant:normal;font-weight:300;font-size:12px;font-family:HelveticaNeue;-inkscape-font-specification:HelveticaNeue-Light;writing-mode:lr-tb;fill:#ffffff;fill-opacity:1;fill-rule:nonzero;stroke:none"
             transform="scale(1,-1)"><tspan
               id="tspan314"
               y="0"
               x="0 6.2280002 11.784 18.011999 24.455999 28.007999 33.779999 37.116001 40.667999 47.34 50.675999 58.236 61.787998 65.351997 71.580002 77.807999 87.804001 91.139999 98.699997">events to Stream A.</tspan></text>
</g></g></g></g></svg>
